<?xml version="1.0" encoding="utf-8"?>
<!-- Generator: Adobe Illustrator 26.0.0, SVG Export Plug-In . SVG Version: 6.00 Build 0)  -->
<svg version="1.1" id="Layer_1" xmlns="http://www.w3.org/2000/svg" xmlns:xlink="http://www.w3.org/1999/xlink" x="0px" y="0px"
	 viewBox="0 0 536.78 549.43" style="enable-background:new 0 0 536.78 549.43;" xml:space="preserve">
<style type="text/css">
	.st0{fill:#134160;}
</style>
<g>
	<g>
		<g>
			<g>
				<g>
					<polygon class="st0" points="452.48,79.45 312.47,79.45 312.47,185.95 177.2,185.95 177.2,79.45 132.42,79.45 132.42,369.89 
						177.2,369.89 177.2,228.2 357.26,228.2 357.26,185.95 357.25,185.95 357.25,136.18 407.69,136.18 407.69,357.8 357.17,357.8 
						357.17,275.28 346.89,275.28 346.89,275.26 242.86,275.26 242.86,275.28 226.41,275.28 226.41,473.38 271.19,473.38 
						271.19,317.5 312.4,317.5 312.4,400.06 357.17,400.06 357.17,400.04 452.44,400.04 452.44,384.55 452.46,384.55 452.46,136.18 
						452.48,136.18 					"/>
					<rect x="87.59" y="79.16" class="st0" width="28.17" height="290.73"/>
				</g>
				<g>
					<path class="st0" d="M87.58,386.15v87.23H177v-87.23H87.58z M160.11,456.36h-54.58v-53.24h54.58V456.36z"/>
					<rect x="117.13" y="415.57" class="st0" width="30.32" height="29.58"/>
				</g>
				<g>
					<path class="st0" d="M200.45,79.42v87.23h89.43V79.42H200.45z M272.98,149.63h-54.58V96.39h54.58V149.63z"/>
					<rect x="230" y="108.84" class="st0" width="30.32" height="29.58"/>
				</g>
				<g>
					<path class="st0" d="M312.38,408.37v64.54H452.3v-64.54H312.38z M440.62,460.31H325.66v-39.39h114.68L440.62,460.31z"/>
					<rect x="334.25" y="430.14" class="st0" width="97.47" height="21.88"/>
				</g>
			</g>
			<g>
				<path class="st0" d="M433.33,512.05H103.45c-36.91,0-66.93-30.02-66.93-66.93V104.3c0-36.91,30.02-66.93,66.93-66.93h329.89
					c36.9,0,66.93,30.02,66.93,66.93v340.82C500.26,482.03,470.24,512.05,433.33,512.05z M103.45,52.67
					c-28.47,0-51.63,23.16-51.63,51.63v340.82c0,28.47,23.16,51.63,51.63,51.63h329.89c28.47,0,51.63-23.16,51.63-51.63V104.3
					c0-28.47-23.16-51.63-51.63-51.63H103.45z"/>
			</g>
		</g>
	</g>
</g>
</svg>
